<svg width="300" height="300" viewBox="0 0 300 300" fill="none" xmlns="http://www.w3.org/2000/svg">
  <rect width="300" height="300" fill="#F3F4F6"/>
  <path d="M150 80C116.192 80 80 96.192 80 140C80 183.808 116.192 200 150 200C183.808 200 200 183.808 200 140C200 96.192 183.808 80 150 80Z" fill="#F3F4F6"/>
  <path d="M130 110C120.052 110 112 118.052 112 128C112 137.948 120.052 146 130 146C139.948 146 148 137.948 148 128C148 118.052 139.948 110 130 110Z" fill="#9CA3AF"/>
  <path d="M150 160C140.052 160 132 168.052 132 178C132 187.948 140.052 196 150 196C159.948 196 168 187.948 168 178C168 168.052 159.948 160 150 160Z" fill="#9CA3AF"/>
  <text x="150" y="220" text-anchor="middle" font-family="Arial, sans-serif" font-size="14" fill="#677380">Image</text>
</svg> 